<mxfile host="app.diagrams.net" agent="Mozilla/5.0 (Windows NT 10.0; Win64; x64) AppleWebKit/537.36 (KHTML, like Gecko) Chrome/129.0.0.0 Safari/537.36" version="24.7.17">
  <diagram name="Page-1" id="1Ogkki-rRng32TZ9zKwG">
    <mxGraphModel dx="479" dy="779" grid="1" gridSize="10" guides="1" tooltips="1" connect="1" arrows="1" fold="1" page="1" pageScale="1" pageWidth="827" pageHeight="1169" math="0" shadow="0">
      <root>
        <mxCell id="0" />
        <mxCell id="1" parent="0" />
        <mxCell id="aIrW6SmTUvFbXausx0Sd-2" value="Carreteras" style="rounded=0;whiteSpace=wrap;html=1;" vertex="1" parent="1">
          <mxGeometry x="140" y="150" width="120" height="60" as="geometry" />
        </mxCell>
        <mxCell id="aIrW6SmTUvFbXausx0Sd-9" value="" style="rounded=0;orthogonalLoop=1;jettySize=auto;html=1;endArrow=none;endFill=0;" edge="1" parent="1" source="aIrW6SmTUvFbXausx0Sd-3" target="aIrW6SmTUvFbXausx0Sd-8">
          <mxGeometry relative="1" as="geometry" />
        </mxCell>
        <mxCell id="aIrW6SmTUvFbXausx0Sd-12" value="" style="edgeStyle=orthogonalEdgeStyle;rounded=0;orthogonalLoop=1;jettySize=auto;html=1;endArrow=none;endFill=0;" edge="1" parent="1" source="aIrW6SmTUvFbXausx0Sd-3" target="aIrW6SmTUvFbXausx0Sd-11">
          <mxGeometry relative="1" as="geometry" />
        </mxCell>
        <mxCell id="aIrW6SmTUvFbXausx0Sd-3" value="Tramo" style="rounded=0;whiteSpace=wrap;html=1;" vertex="1" parent="1">
          <mxGeometry x="140" y="450" width="120" height="60" as="geometry" />
        </mxCell>
        <mxCell id="aIrW6SmTUvFbXausx0Sd-6" value="" style="rounded=0;orthogonalLoop=1;jettySize=auto;html=1;endArrow=none;endFill=0;" edge="1" parent="1" source="aIrW6SmTUvFbXausx0Sd-4" target="aIrW6SmTUvFbXausx0Sd-5">
          <mxGeometry relative="1" as="geometry" />
        </mxCell>
        <mxCell id="aIrW6SmTUvFbXausx0Sd-4" value="Municipio" style="rounded=0;whiteSpace=wrap;html=1;" vertex="1" parent="1">
          <mxGeometry x="140" y="675" width="120" height="60" as="geometry" />
        </mxCell>
        <mxCell id="aIrW6SmTUvFbXausx0Sd-7" value="" style="rounded=0;orthogonalLoop=1;jettySize=auto;html=1;endArrow=none;endFill=0;" edge="1" parent="1" source="aIrW6SmTUvFbXausx0Sd-5" target="aIrW6SmTUvFbXausx0Sd-3">
          <mxGeometry relative="1" as="geometry" />
        </mxCell>
        <mxCell id="aIrW6SmTUvFbXausx0Sd-5" value="Pasa" style="rhombus;whiteSpace=wrap;html=1;rounded=0;" vertex="1" parent="1">
          <mxGeometry x="160" y="550" width="80" height="80" as="geometry" />
        </mxCell>
        <mxCell id="aIrW6SmTUvFbXausx0Sd-10" value="" style="rounded=0;orthogonalLoop=1;jettySize=auto;html=1;endArrow=none;endFill=0;" edge="1" parent="1" source="aIrW6SmTUvFbXausx0Sd-8" target="aIrW6SmTUvFbXausx0Sd-2">
          <mxGeometry relative="1" as="geometry" />
        </mxCell>
        <mxCell id="aIrW6SmTUvFbXausx0Sd-8" value="Pertenece" style="rhombus;whiteSpace=wrap;html=1;rounded=0;" vertex="1" parent="1">
          <mxGeometry x="160" y="290" width="80" height="80" as="geometry" />
        </mxCell>
        <mxCell id="aIrW6SmTUvFbXausx0Sd-13" style="edgeStyle=orthogonalEdgeStyle;rounded=0;orthogonalLoop=1;jettySize=auto;html=1;entryX=1;entryY=0.5;entryDx=0;entryDy=0;endArrow=none;endFill=0;" edge="1" parent="1" source="aIrW6SmTUvFbXausx0Sd-11" target="aIrW6SmTUvFbXausx0Sd-2">
          <mxGeometry relative="1" as="geometry">
            <Array as="points">
              <mxPoint x="360" y="180" />
            </Array>
          </mxGeometry>
        </mxCell>
        <mxCell id="aIrW6SmTUvFbXausx0Sd-11" value="Es Final" style="rhombus;whiteSpace=wrap;html=1;rounded=0;" vertex="1" parent="1">
          <mxGeometry x="320" y="290" width="80" height="80" as="geometry" />
        </mxCell>
      </root>
    </mxGraphModel>
  </diagram>
</mxfile>
